# xmcd
#
# Track frame offsets: 
#        182
#        13772
#        26672
#        44482
#        62400
#        80480
#        93357
#        112450
#        128500
#        149907
#        168540
#
# Disc length: 2451 seconds
#
# Revision: 3
# Processed by: cddbd v1.5.1PL0 Copyright (c) Steve Scherf et al.
# Submitted via: ExactAudioCopy v0.95a5
#
DISCID=9c09910b
DTITLE=Michael Peterson - Being Human
DYEAR=1999
DGENRE=Country
TTITLE0=Laughin' All The Way To The Bank
TTITLE1=You Find Love When You Make It
TTITLE2=I Owe It All To You
TTITLE3=Somethin' 'Bout A Sunday
TTITLE4=Let Me Love You One More Time
TTITLE5=Sure Feels Real Good
TTITLE6=Being Human
TTITLE7=Stomp
TTITLE8=Two Of The Lucky Ones (With Bekka Bramlett)
TTITLE9=Slow Dance
TTITLE10=Before Another Day Goes By
EXTD=
EXTT0=
EXTT1=
EXTT2=
EXTT3=
EXTT4=
EXTT5=
EXTT6=
EXTT7=
EXTT8=
EXTT9=
EXTT10=
PLAYORDER=
